<svg width="500" height="500" viewBox="0 0 500 500" fill="none" xmlns="http://www.w3.org/2000/svg">
<g clip-path="url(#clip0_65_2)">
<rect width="500" height="500" rx="90" fill="#131313"/>
<g clip-path="url(#clip1_65_2)">
<path d="M420 222.524C420 155.82 400.471 101.675 376.353 101.25C376.459 101.25 376.544 101.25 376.65 101.25H349.11C349.11 101.25 284.425 149.849 191.329 168.91C188.481 183.955 186.675 201.869 186.675 222.524C186.675 243.179 188.481 261.114 191.329 276.138C284.446 295.199 349.11 343.798 349.11 343.798H376.65C376.544 343.798 376.459 343.798 376.353 343.776C400.493 343.351 420 289.249 420 222.524ZM367.151 325.459C364.028 325.459 360.67 322.229 358.928 320.295C354.741 315.62 350.704 308.353 347.24 299.279C339.526 278.943 335.255 251.7 335.255 222.545C335.255 193.39 339.505 166.126 347.24 145.811C350.683 136.716 354.741 129.449 358.928 124.774C360.649 122.84 364.028 119.61 367.151 119.61C370.275 119.61 373.633 122.84 375.375 124.774C379.561 129.449 383.599 136.716 387.063 145.811C394.776 166.148 399.048 193.39 399.048 222.545C399.048 251.7 394.798 278.964 387.063 299.279C383.62 308.374 379.561 315.641 375.375 320.295C373.654 322.229 370.275 325.459 367.151 325.459ZM163.619 222.524C163.619 205.269 164.894 188.524 167.295 173.011C151.57 175.179 137.758 176.433 120.694 176.433C98.4238 176.433 98.4238 176.433 98.4238 176.433L80 207.861V237.144L98.4238 268.573C98.4238 268.573 98.4238 268.573 120.694 268.573C137.758 268.573 151.57 269.826 167.295 271.994C164.894 256.503 163.619 239.736 163.619 222.481V222.524ZM202.23 293.223L159.73 285.084L186.909 391.844C188.311 397.369 193.794 400.153 199.085 398.028L238.44 382.281C243.731 380.156 245.856 374.334 243.158 369.298L202.23 293.201V293.223Z" fill="#BBF451"/>
</g>
</g>
<defs>
<clipPath id="clip0_65_2">
<rect width="500" height="500" fill="white"/>
</clipPath>
<clipPath id="clip1_65_2">
<rect width="340" height="340" fill="white" transform="translate(80 80)"/>
</clipPath>
</defs>
</svg>
